<?xml version="1.0" encoding="UTF-8" standalone="no"?>
<!-- Created with Inkscape (http://www.inkscape.org/) -->

<svg
   width="326"
   height="136"
   viewBox="0 0 86.254172 35.983334"
   version="1.1"
   id="svg1273"
   xmlns="http://www.w3.org/2000/svg"
   xmlnsSvg="http://www.w3.org/2000/svg">
  <defs
     id="defs1270" />
  <g
     id="layer1">
    <g
       id="g1433"
       transform="translate(-51.700421,-45.025494)">
      <g
         id="g1109"
         transform="matrix(0.35277777,0,0,-0.35277777,59.554295,70.245203)">
        <path
           d="m 0,0 c 4.712,-1.055 8.726,-1.583 12.042,-1.583 4.335,0 8.358,0.801 12.072,2.403 3.712,1.602 6.925,3.882 9.639,6.841 2.714,2.958 4.843,6.548 6.389,10.77 1.545,4.221 2.319,8.952 2.319,14.191 0,5.276 -0.764,10.026 -2.291,14.248 -1.525,4.221 -3.656,7.811 -6.388,10.77 -2.734,2.959 -5.994,5.23 -9.781,6.813 -3.788,1.582 -7.925,2.374 -12.411,2.374 -1.695,0 -3.505,-0.141 -5.427,-0.424 C 4.241,66.121 2.187,65.715 0,65.188 Z m -21.879,-5.541 v 2.092 h 2.882 c 3.204,0 5.504,1.037 6.899,3.11 0.828,1.206 1.244,3.994 1.244,8.367 v 49.527 c 0,4.824 -0.529,7.821 -1.584,8.989 -1.469,1.659 -3.656,2.488 -6.559,2.488 h -2.882 v 2.092 H 9.329 c 11.458,0 20.164,-1.3 26.119,-3.901 5.995,-2.601 10.799,-6.936 14.417,-13.004 3.656,-6.031 5.485,-13.041 5.485,-21.032 0,-5.653 -0.915,-10.854 -2.742,-15.604 -1.83,-4.749 -4.543,-8.829 -8.14,-12.24 -3.601,-3.411 -8.085,-6.078 -13.456,-8 C 25.64,-4.579 19.43,-5.541 12.382,-5.541 Z"
           style="fill:#303263;fill-opacity:1;fill-rule:nonzero;stroke:none"
           id="path1111" />
      </g>
      <g
         id="g1113"
         transform="matrix(0.35277777,0,0,-0.35277777,91.288454,72.199769)">
        <path
           d="M 0,0 -29.625,64.509 V 13.286 c 0,-4.712 0.508,-7.652 1.525,-8.82 1.395,-1.583 3.599,-2.374 6.616,-2.374 h 2.713 V 0 h -26.685 v 2.092 h 2.714 c 3.242,0 5.54,0.98 6.898,2.94 0.828,1.168 1.243,3.92 1.243,8.254 v 50.092 c 0,3.317 -0.377,5.767 -1.129,7.35 -0.265,0.565 -0.624,1.084 -1.076,1.555 -0.452,0.47 -1.064,0.877 -1.837,1.216 -0.774,0.339 -1.706,0.602 -2.798,0.791 -1.094,0.188 -2.432,0.283 -4.015,0.283 v 2.092 h 21.71 L 4.07,16.678 31.436,76.665 h 21.71 v -2.092 h -2.659 c -3.278,0 -5.597,-0.981 -6.954,-2.941 -0.83,-1.168 -1.243,-3.92 -1.243,-8.254 V 13.286 c 0,-4.712 0.526,-7.652 1.582,-8.82 1.394,-1.583 3.6,-2.374 6.615,-2.374 h 2.659 V 0 H 20.579 v 2.092 h 2.714 c 3.24,0 5.54,0.98 6.896,2.94 0.831,1.168 1.247,3.92 1.247,8.254 V 64.509 L 1.866,0 Z"
           style="fill:#303263;fill-opacity:1;fill-rule:nonzero;stroke:none"
           id="path1115" />
      </g>
      <g
         id="g1117"
         transform="matrix(0.35277777,0,0,-0.35277777,138.13071,45.154202)">
        <path
           d="m 0,0 v -2.092 c -1.621,-0.302 -3.008,-0.735 -4.155,-1.3 -1.151,-0.565 -2.159,-1.301 -3.026,-2.206 -0.868,-0.904 -1.632,-1.988 -2.289,-3.25 -0.661,-1.263 -1.329,-2.705 -2.008,-4.325 l -26.751,-63.451 h -2.092 l -28.711,64.299 c -1.509,3.467 -2.545,5.54 -3.111,6.219 -0.941,1.168 -2.09,2.082 -3.448,2.742 -1.356,0.659 -3.222,1.083 -5.597,1.272 V 0 h 31.321 v -2.092 c -1.809,-0.189 -3.271,-0.433 -4.38,-0.735 -1.113,-0.302 -1.971,-0.669 -2.572,-1.102 -0.605,-0.434 -1.01,-0.924 -1.217,-1.47 -0.208,-0.547 -0.311,-1.16 -0.311,-1.838 0,-1.922 0.867,-4.862 2.601,-8.82 l 19.506,-44.947 18.091,44.382 c 1.772,4.41 2.657,7.444 2.657,9.102 0,1.168 -0.612,2.271 -1.837,3.308 -1.226,1.036 -3.327,1.743 -6.304,2.12 V 0 Z"
           style="fill:#303263;fill-opacity:1;fill-rule:nonzero;stroke:none"
           id="path1119" />
      </g>
      <g
         id="g1121"
         transform="matrix(0.35277777,0,0,-0.35277777,93.295199,80.452334)">
        <path
           d="m 0,0 c 1.116,-0.224 2.228,-0.335 3.334,-0.335 0.883,0 1.661,0.091 2.336,0.273 C 6.345,0.12 6.91,0.371 7.366,0.69 7.822,1.009 8.164,1.382 8.393,1.809 8.621,2.235 8.734,2.693 8.734,3.182 8.734,3.72 8.611,4.224 8.363,4.692 8.116,5.16 7.737,5.566 7.228,5.91 6.719,6.253 6.078,6.525 5.307,6.724 4.534,6.923 3.625,7.022 2.576,7.022 1.965,7.022 1.448,7.014 1.026,6.997 0.604,6.98 0.262,6.952 0,6.91 Z M 0,8.054 C 0.737,7.937 1.654,7.88 2.751,7.88 c 1.427,0 2.489,0.128 3.188,0.385 0.36,0.132 0.677,0.302 0.954,0.509 0.277,0.207 0.507,0.439 0.692,0.697 0.184,0.257 0.325,0.534 0.422,0.832 0.097,0.299 0.145,0.609 0.145,0.932 0,0.481 -0.119,0.939 -0.356,1.373 -0.238,0.435 -0.59,0.815 -1.056,1.138 -0.466,0.323 -1.043,0.58 -1.732,0.771 -0.69,0.19 -1.486,0.285 -2.388,0.285 -0.99,0 -1.863,-0.091 -2.62,-0.273 z M 7.628,7.382 C 8.434,7.233 9.12,7.03 9.688,6.773 10.256,6.517 10.72,6.214 11.078,5.866 11.438,5.518 11.7,5.135 11.864,4.717 c 0.165,-0.419 0.248,-0.86 0.248,-1.324 0,-0.414 -0.08,-0.827 -0.24,-1.237 C 11.712,1.746 11.481,1.361 11.181,1 10.88,0.64 10.514,0.313 10.081,0.019 9.649,-0.275 9.162,-0.514 8.618,-0.696 7.541,-1.044 5.891,-1.218 3.668,-1.218 h -9.317 v 0.46 h 0.743 c 0.815,0 1.407,0.224 1.775,0.671 0.224,0.29 0.335,0.907 0.335,1.852 v 10.887 c 0,1.036 -0.141,1.695 -0.422,1.976 -0.379,0.365 -0.941,0.547 -1.688,0.547 h -0.743 v 0.46 h 8.531 c 1.592,0 2.868,-0.099 3.829,-0.299 0.728,-0.148 1.371,-0.36 1.929,-0.633 0.558,-0.274 1.026,-0.593 1.405,-0.957 0.379,-0.365 0.665,-0.768 0.859,-1.212 0.194,-0.443 0.291,-0.909 0.291,-1.398 0,-0.845 -0.3,-1.601 -0.903,-2.268 C 9.69,8.201 8.803,7.706 7.628,7.382"
           style="fill:#303263;fill-opacity:1;fill-rule:nonzero;stroke:none"
           id="path1123" />
      </g>
      <g
         id="g1125"
         transform="matrix(0.35277777,0,0,-0.35277777,100.30563,77.825939)">
        <path
           d="m 0,0 c 0.185,0 0.345,-0.002 0.48,-0.006 0.136,-0.005 0.248,-0.007 0.335,-0.007 0.942,0 1.769,0.094 2.482,0.28 0.714,0.187 1.308,0.445 1.784,0.777 0.476,0.331 0.832,0.723 1.069,1.174 0.239,0.452 0.358,0.943 0.358,1.473 0,0.522 -0.103,1 -0.306,1.435 C 5.998,5.562 5.709,5.937 5.335,6.251 4.962,6.566 4.516,6.811 3.996,6.984 3.477,7.159 2.906,7.246 2.285,7.246 2.004,7.246 1.674,7.227 1.296,7.189 0.917,7.152 0.485,7.092 0,7.009 Z M 14.02,-8.663 H 8.749 l -6.682,7.88 C 1.814,-0.792 1.589,-0.798 1.39,-0.802 1.191,-0.806 1.014,-0.808 0.858,-0.808 0.732,-0.808 0.597,-0.806 0.451,-0.802 0.306,-0.798 0.155,-0.792 0,-0.783 V -5.68 c 0,-1.06 0.136,-1.719 0.407,-1.976 0.369,-0.365 0.922,-0.547 1.66,-0.547 h 0.772 v -0.46 H -5.62 v 0.46 h 0.743 c 0.824,0 1.422,0.232 1.79,0.696 0.204,0.257 0.306,0.866 0.306,1.827 V 5.208 c 0,1.06 -0.136,1.719 -0.407,1.976 C -3.567,7.548 -4.13,7.73 -4.877,7.73 H -5.62 v 0.46 h 7.192 c 2.077,0 3.62,-0.132 4.63,-0.398 C 6.696,7.668 7.16,7.481 7.592,7.233 8.023,6.984 8.402,6.69 8.728,6.351 9.053,6.011 9.31,5.63 9.499,5.208 9.688,4.785 9.783,4.333 9.783,3.853 9.783,3.331 9.686,2.844 9.492,2.392 9.298,1.941 8.999,1.528 8.597,1.156 8.193,0.783 7.687,0.459 7.075,0.186 6.464,-0.087 5.745,-0.303 4.921,-0.46 l 4.076,-4.834 c 0.941,-1.119 1.742,-1.856 2.402,-2.213 0.679,-0.365 1.553,-0.597 2.621,-0.696 z"
           style="fill:#303263;fill-opacity:1;fill-rule:nonzero;stroke:none"
           id="path1127" />
      </g>
      <g
         id="g1129"
         transform="matrix(0.35277777,0,0,-0.35277777,110.05355,73.318745)">
        <path
           d="M 0,0 -4.28,-3.418 H -4.79 L -3.247,0 Z m -3.247,-5.108 c -0.999,0 -1.888,-0.183 -2.664,-0.547 -0.776,-0.365 -1.429,-0.885 -1.958,-1.56 -0.529,-0.675 -0.932,-1.493 -1.208,-2.454 -0.277,-0.961 -0.415,-2.039 -0.415,-3.232 0,-1.184 0.136,-2.27 0.407,-3.256 0.272,-0.986 0.673,-1.833 1.201,-2.542 0.53,-0.708 1.182,-1.259 1.958,-1.653 0.777,-0.393 1.675,-0.59 2.694,-0.59 0.912,0 1.759,0.149 2.541,0.447 0.781,0.299 1.458,0.761 2.03,1.386 0.573,0.626 1.021,1.423 1.347,2.393 0.325,0.969 0.488,2.125 0.488,3.467 0,1.285 -0.134,2.43 -0.401,3.436 -0.267,1.007 -0.669,1.859 -1.209,2.555 -0.538,0.696 -1.208,1.228 -2.008,1.597 -0.801,0.369 -1.735,0.553 -2.803,0.553 m 0.277,0.907 c 2.552,0 4.77,-0.833 6.653,-2.498 1.883,-1.657 2.825,-3.729 2.825,-6.214 0,-2.561 -0.946,-4.686 -2.839,-6.376 -1.893,-1.69 -4.184,-2.535 -6.872,-2.535 -2.728,0 -5.013,0.824 -6.857,2.473 -1.844,1.649 -2.766,3.782 -2.766,6.4 0,2.677 1.067,4.86 3.203,6.55 1.853,1.467 4.071,2.2 6.653,2.2"
           style="fill:#303263;fill-opacity:1;fill-rule:nonzero;stroke:none"
           id="path1131" />
      </g>
      <g
         id="g1133"
         transform="matrix(0.35277777,0,0,-0.35277777,115.89813,77.58478)">
        <path
           d="m 0,0 7.279,-6.177 c 1.194,-1.019 2.213,-1.715 3.057,-2.088 0.854,-0.364 1.699,-0.572 2.533,-0.621 v -0.46 h -9.39 v 0.46 c 0.563,0 0.968,0.08 1.216,0.242 0.247,0.162 0.371,0.342 0.371,0.54 0,0.1 -0.004,0.189 -0.014,0.268 -0.01,0.079 -0.046,0.163 -0.11,0.254 -0.063,0.092 -0.165,0.207 -0.305,0.349 -0.141,0.14 -0.347,0.323 -0.619,0.546 l -6.813,5.755 v -5.431 c 0,-0.398 0.01,-0.721 0.028,-0.97 0.02,-0.249 0.057,-0.452 0.11,-0.609 0.053,-0.157 0.134,-0.284 0.24,-0.379 0.106,-0.095 0.248,-0.184 0.422,-0.267 0.418,-0.199 0.859,-0.298 1.325,-0.298 H 0 v -0.46 h -8.415 v 0.46 h 0.699 c 0.825,0 1.417,0.202 1.776,0.609 0.233,0.256 0.349,0.894 0.349,1.914 V 4.524 c 0,0.381 -0.007,0.696 -0.021,0.944 -0.015,0.249 -0.051,0.454 -0.11,0.615 -0.058,0.162 -0.138,0.292 -0.24,0.392 -0.101,0.099 -0.24,0.191 -0.415,0.274 -0.427,0.198 -0.873,0.298 -1.339,0.298 H -8.415 V 7.506 H 0 V 7.047 H -0.67 C -0.854,7.047 -1.046,7.03 -1.245,6.997 -1.443,6.964 -1.633,6.912 -1.812,6.842 -1.992,6.771 -2.154,6.68 -2.301,6.568 -2.446,6.457 -2.553,6.322 -2.621,6.164 -2.737,5.899 -2.795,5.352 -2.795,4.524 v -5.158 c 0.378,0.265 0.81,0.588 1.295,0.969 0.485,0.381 0.983,0.783 1.492,1.206 0.51,0.422 1.015,0.845 1.515,1.268 0.5,0.422 0.953,0.814 1.361,1.174 0.407,0.36 0.749,0.673 1.027,0.938 0.276,0.266 0.453,0.444 0.531,0.535 0.261,0.331 0.392,0.621 0.392,0.87 0,0.191 -0.099,0.358 -0.297,0.503 -0.2,0.145 -0.546,0.218 -1.042,0.218 H 3.028 v 0.459 h 7.25 V 7.047 C 9.851,7.03 9.463,6.98 9.113,6.897 8.938,6.848 8.744,6.782 8.531,6.699 8.317,6.616 8.082,6.504 7.825,6.363 7.567,6.222 7.286,6.05 6.98,5.847 6.675,5.645 6.338,5.398 5.969,5.108 Z"
           style="fill:#303263;fill-opacity:1;fill-rule:nonzero;stroke:none"
           id="path1135" />
      </g>
      <g
         id="g1137"
         transform="matrix(0.35277777,0,0,-0.35277777,122.5489,75.261068)">
        <path
           d="m 0,0 v -6.662 h 4.339 c 0.631,0 1.142,0.048 1.536,0.143 0.393,0.096 0.701,0.245 0.924,0.448 0.223,0.203 0.379,0.457 0.466,0.764 0.088,0.307 0.146,0.671 0.174,1.094 h 0.54 V -10.08 H 7.439 C 7.372,-9.665 7.304,-9.328 7.236,-9.066 7.168,-8.806 7.101,-8.617 7.032,-8.501 6.944,-8.352 6.833,-8.222 6.697,-8.109 6.562,-7.998 6.387,-7.9 6.173,-7.817 5.96,-7.735 5.702,-7.672 5.401,-7.631 5.101,-7.59 4.746,-7.569 4.339,-7.569 H 0 v -5.556 c 0,-0.737 0.039,-1.192 0.117,-1.367 0.038,-0.074 0.087,-0.145 0.146,-0.211 0.057,-0.066 0.142,-0.122 0.255,-0.168 0.111,-0.045 0.256,-0.08 0.436,-0.105 0.18,-0.025 0.405,-0.038 0.677,-0.038 h 3.348 c 0.573,0 1.051,0.015 1.434,0.044 0.384,0.029 0.719,0.079 1.005,0.149 0.286,0.071 0.539,0.17 0.757,0.299 0.219,0.128 0.449,0.292 0.691,0.49 0.301,0.249 0.607,0.568 0.918,0.957 0.311,0.39 0.621,0.846 0.932,1.367 h 0.582 L 9.595,-15.933 H -5.619 v 0.46 h 0.699 c 0.184,0 0.378,0.016 0.582,0.049 0.204,0.033 0.396,0.088 0.575,0.162 0.18,0.074 0.342,0.168 0.488,0.28 0.145,0.111 0.248,0.242 0.305,0.391 0.117,0.257 0.175,0.799 0.175,1.628 v 10.949 c 0,1.061 -0.126,1.72 -0.378,1.976 C -3.522,0.294 -4.105,0.46 -4.92,0.46 H -5.619 V 0.919 H 9.595 v -3.69 H 9.245 C 9.139,-2.324 9.031,-1.956 8.925,-1.666 8.818,-1.375 8.696,-1.135 8.561,-0.945 8.425,-0.754 8.27,-0.603 8.095,-0.491 7.92,-0.379 7.712,-0.278 7.469,-0.187 7.071,-0.062 6.387,0 5.416,0 Z"
           style="fill:#303263;fill-opacity:1;fill-rule:nonzero;stroke:none"
           id="path1139" />
      </g>
      <g
         id="g1141"
         transform="matrix(0.35277777,0,0,-0.35277777,128.93817,77.825939)">
        <path
           d="m 0,0 c 0.185,0 0.345,-0.002 0.48,-0.006 0.136,-0.005 0.248,-0.007 0.335,-0.007 0.942,0 1.769,0.094 2.482,0.28 0.714,0.187 1.308,0.445 1.784,0.777 0.476,0.331 0.832,0.723 1.069,1.174 0.239,0.452 0.358,0.943 0.358,1.473 0,0.522 -0.103,1 -0.307,1.435 C 5.998,5.562 5.709,5.937 5.335,6.251 4.962,6.566 4.516,6.811 3.996,6.984 3.477,7.159 2.906,7.246 2.285,7.246 2.004,7.246 1.674,7.227 1.296,7.189 0.917,7.152 0.485,7.092 0,7.009 Z M 14.02,-8.663 H 8.749 l -6.682,7.88 C 1.814,-0.792 1.589,-0.798 1.39,-0.802 1.191,-0.806 1.014,-0.808 0.858,-0.808 0.732,-0.808 0.597,-0.806 0.451,-0.802 0.306,-0.798 0.155,-0.792 0,-0.783 V -5.68 c 0,-1.06 0.136,-1.719 0.407,-1.976 0.369,-0.365 0.922,-0.547 1.66,-0.547 h 0.772 v -0.46 H -5.62 v 0.46 h 0.743 c 0.824,0 1.422,0.232 1.79,0.696 0.204,0.257 0.306,0.866 0.306,1.827 V 5.208 c 0,1.06 -0.136,1.719 -0.407,1.976 C -3.567,7.548 -4.13,7.73 -4.877,7.73 H -5.62 V 8.19 H 1.572 C 3.649,8.19 5.192,8.058 6.201,7.792 6.696,7.668 7.16,7.481 7.592,7.233 8.023,6.984 8.402,6.69 8.728,6.351 9.053,6.011 9.31,5.63 9.499,5.208 9.688,4.785 9.783,4.333 9.783,3.853 9.783,3.331 9.686,2.844 9.492,2.392 9.298,1.941 8.999,1.528 8.597,1.156 8.193,0.783 7.687,0.459 7.075,0.186 6.464,-0.087 5.745,-0.303 4.921,-0.46 l 4.076,-4.834 c 0.941,-1.119 1.742,-1.856 2.402,-2.213 0.679,-0.365 1.553,-0.597 2.621,-0.696 z"
           style="fill:#303263;fill-opacity:1;fill-rule:nonzero;stroke:none"
           id="path1143" />
      </g>
    </g>
  </g>
</svg>
