<?xml version="1.0" encoding="UTF-8"?>
<!-- Created with Inkscape (http://www.inkscape.org/) -->
<svg width="326" height="136" version="1.1" viewBox="0 0 86.254 35.983" xmlns="http://www.w3.org/2000/svg" xmlnssvg="http://www.w3.org/2000/svg">
 <g transform="translate(-51.7 -45.025)">
  <g transform="matrix(.35278 0 0 -.35278 59.554 70.245)">
   <path d="m0 0c4.712-1.055 8.726-1.583 12.042-1.583 4.335 0 8.358 0.801 12.072 2.403 3.712 1.602 6.925 3.882 9.639 6.841 2.714 2.958 4.843 6.548 6.389 10.77 1.545 4.221 2.319 8.952 2.319 14.191 0 5.276-0.764 10.026-2.291 14.248-1.525 4.221-3.656 7.811-6.388 10.77-2.734 2.959-5.994 5.23-9.781 6.813-3.788 1.582-7.925 2.374-12.411 2.374-1.695 0-3.505-0.141-5.427-0.424-1.922-0.282-3.976-0.688-6.163-1.215zm-21.879-5.541v2.092h2.882c3.204 0 5.504 1.037 6.899 3.11 0.828 1.206 1.244 3.994 1.244 8.367v49.527c0 4.824-0.529 7.821-1.584 8.989-1.469 1.659-3.656 2.488-6.559 2.488h-2.882v2.092h31.208c11.458 0 20.164-1.3 26.119-3.901 5.995-2.601 10.799-6.936 14.417-13.004 3.656-6.031 5.485-13.041 5.485-21.032 0-5.653-0.915-10.854-2.742-15.604-1.83-4.749-4.543-8.829-8.14-12.24-3.601-3.411-8.085-6.078-13.456-8-5.372-1.922-11.582-2.884-18.63-2.884z" fill="#303263"/>
  </g>
  <g transform="matrix(.35278 0 0 -.35278 91.288 72.2)">
   <path d="m0 0-29.625 64.509v-51.223c0-4.712 0.508-7.652 1.525-8.82 1.395-1.583 3.599-2.374 6.616-2.374h2.713v-2.092h-26.685v2.092h2.714c3.242 0 5.54 0.98 6.898 2.94 0.828 1.168 1.243 3.92 1.243 8.254v50.092c0 3.317-0.377 5.767-1.129 7.35-0.265 0.565-0.624 1.084-1.076 1.555-0.452 0.47-1.064 0.877-1.837 1.216-0.774 0.339-1.706 0.602-2.798 0.791-1.094 0.188-2.432 0.283-4.015 0.283v2.092h21.71l27.816-59.987 27.366 59.987h21.71v-2.092h-2.659c-3.278 0-5.597-0.981-6.954-2.941-0.83-1.168-1.243-3.92-1.243-8.254v-50.092c0-4.712 0.526-7.652 1.582-8.82 1.394-1.583 3.6-2.374 6.615-2.374h2.659v-2.092h-32.567v2.092h2.714c3.24 0 5.54 0.98 6.896 2.94 0.831 1.168 1.247 3.92 1.247 8.254v51.223l-29.57-64.509z" fill="#303263"/>
  </g>
  <g transform="matrix(.35278 0 0 -.35278 138.13 45.154)">
   <path d="m0 0v-2.092c-1.621-0.302-3.008-0.735-4.155-1.3-1.151-0.565-2.159-1.301-3.026-2.206-0.868-0.904-1.632-1.988-2.289-3.25-0.661-1.263-1.329-2.705-2.008-4.325l-26.751-63.451h-2.092l-28.711 64.299c-1.509 3.467-2.545 5.54-3.111 6.219-0.941 1.168-2.09 2.082-3.448 2.742-1.356 0.659-3.222 1.083-5.597 1.272v2.092h31.321v-2.092c-1.809-0.189-3.271-0.433-4.38-0.735-1.113-0.302-1.971-0.669-2.572-1.102-0.605-0.434-1.01-0.924-1.217-1.47-0.208-0.547-0.311-1.16-0.311-1.838 0-1.922 0.867-4.862 2.601-8.82l19.506-44.947 18.091 44.382c1.772 4.41 2.657 7.444 2.657 9.102 0 1.168-0.612 2.271-1.837 3.308-1.226 1.036-3.327 1.743-6.304 2.12v2.092z" fill="#303263"/>
  </g>
  <g transform="matrix(.35278 0 0 -.35278 93.295 80.452)">
   <path d="m0 0c1.116-0.224 2.228-0.335 3.334-0.335 0.883 0 1.661 0.091 2.336 0.273s1.24 0.433 1.696 0.752 0.798 0.692 1.027 1.119c0.228 0.426 0.341 0.884 0.341 1.373 0 0.538-0.123 1.042-0.371 1.51-0.247 0.468-0.626 0.874-1.135 1.218-0.509 0.343-1.15 0.615-1.921 0.814-0.773 0.199-1.682 0.298-2.731 0.298-0.611 0-1.128-8e-3 -1.55-0.025s-0.764-0.045-1.026-0.087zm0 8.054c0.737-0.117 1.654-0.174 2.751-0.174 1.427 0 2.489 0.128 3.188 0.385 0.36 0.132 0.677 0.302 0.954 0.509s0.507 0.439 0.692 0.697c0.184 0.257 0.325 0.534 0.422 0.832 0.097 0.299 0.145 0.609 0.145 0.932 0 0.481-0.119 0.939-0.356 1.373-0.238 0.435-0.59 0.815-1.056 1.138s-1.043 0.58-1.732 0.771c-0.69 0.19-1.486 0.285-2.388 0.285-0.99 0-1.863-0.091-2.62-0.273zm7.628-0.672c0.806-0.149 1.492-0.352 2.06-0.609 0.568-0.256 1.032-0.559 1.39-0.907 0.36-0.348 0.622-0.731 0.786-1.149 0.165-0.419 0.248-0.86 0.248-1.324 0-0.414-0.08-0.827-0.24-1.237s-0.391-0.795-0.691-1.156c-0.301-0.36-0.667-0.687-1.1-0.981-0.432-0.294-0.919-0.533-1.463-0.715-1.077-0.348-2.727-0.522-4.95-0.522h-9.317v0.46h0.743c0.815 0 1.407 0.224 1.775 0.671 0.224 0.29 0.335 0.907 0.335 1.852v10.887c0 1.036-0.141 1.695-0.422 1.976-0.379 0.365-0.941 0.547-1.688 0.547h-0.743v0.46h8.531c1.592 0 2.868-0.099 3.829-0.299 0.728-0.148 1.371-0.36 1.929-0.633 0.558-0.274 1.026-0.593 1.405-0.957 0.379-0.365 0.665-0.768 0.859-1.212 0.194-0.443 0.291-0.909 0.291-1.398 0-0.845-0.3-1.601-0.903-2.268-0.602-0.667-1.489-1.162-2.664-1.486" fill="#303263"/>
  </g>
  <g transform="matrix(.35278 0 0 -.35278 100.31 77.826)">
   <path d="m0 0c0.185 0 0.345-2e-3 0.48-6e-3 0.136-5e-3 0.248-7e-3 0.335-7e-3 0.942 0 1.769 0.094 2.482 0.28 0.714 0.187 1.308 0.445 1.784 0.777 0.476 0.331 0.832 0.723 1.069 1.174 0.239 0.452 0.358 0.943 0.358 1.473 0 0.522-0.103 1-0.306 1.435-0.204 0.436-0.493 0.811-0.867 1.125-0.373 0.315-0.819 0.56-1.339 0.733-0.519 0.175-1.09 0.262-1.711 0.262-0.281 0-0.611-0.019-0.989-0.057-0.379-0.037-0.811-0.097-1.296-0.18zm14.02-8.663h-5.271l-6.682 7.88c-0.253-9e-3 -0.478-0.015-0.677-0.019s-0.376-6e-3 -0.532-6e-3c-0.126 0-0.261 2e-3 -0.407 6e-3 -0.145 4e-3 -0.296 0.01-0.451 0.019v-4.897c0-1.06 0.136-1.719 0.407-1.976 0.369-0.365 0.922-0.547 1.66-0.547h0.772v-0.46h-8.459v0.46h0.743c0.824 0 1.422 0.232 1.79 0.696 0.204 0.257 0.306 0.866 0.306 1.827v10.888c0 1.06-0.136 1.719-0.407 1.976-0.379 0.364-0.942 0.546-1.689 0.546h-0.743v0.46h7.192c2.077 0 3.62-0.132 4.63-0.398 0.494-0.124 0.958-0.311 1.39-0.559 0.431-0.249 0.81-0.543 1.136-0.882 0.325-0.34 0.582-0.721 0.771-1.143 0.189-0.423 0.284-0.875 0.284-1.355 0-0.522-0.097-1.009-0.291-1.461-0.194-0.451-0.493-0.864-0.895-1.236-0.404-0.373-0.91-0.697-1.522-0.97-0.611-0.273-1.33-0.489-2.154-0.646l4.076-4.834c0.941-1.119 1.742-1.856 2.402-2.213 0.679-0.365 1.553-0.597 2.621-0.696z" fill="#303263"/>
  </g>
  <g transform="matrix(.35278 0 0 -.35278 110.05 73.319)">
   <path d="m0 0-4.28-3.418h-0.51l1.543 3.418zm-3.247-5.108c-0.999 0-1.888-0.183-2.664-0.547-0.776-0.365-1.429-0.885-1.958-1.56s-0.932-1.493-1.208-2.454c-0.277-0.961-0.415-2.039-0.415-3.232 0-1.184 0.136-2.27 0.407-3.256 0.272-0.986 0.673-1.833 1.201-2.542 0.53-0.708 1.182-1.259 1.958-1.653 0.777-0.393 1.675-0.59 2.694-0.59 0.912 0 1.759 0.149 2.541 0.447 0.781 0.299 1.458 0.761 2.03 1.386 0.573 0.626 1.021 1.423 1.347 2.393 0.325 0.969 0.488 2.125 0.488 3.467 0 1.285-0.134 2.43-0.401 3.436-0.267 1.007-0.669 1.859-1.209 2.555-0.538 0.696-1.208 1.228-2.008 1.597-0.801 0.369-1.735 0.553-2.803 0.553m0.277 0.907c2.552 0 4.77-0.833 6.653-2.498 1.883-1.657 2.825-3.729 2.825-6.214 0-2.561-0.946-4.686-2.839-6.376s-4.184-2.535-6.872-2.535c-2.728 0-5.013 0.824-6.857 2.473s-2.766 3.782-2.766 6.4c0 2.677 1.067 4.86 3.203 6.55 1.853 1.467 4.071 2.2 6.653 2.2" fill="#303263"/>
  </g>
  <g transform="matrix(.35278 0 0 -.35278 115.9 77.585)">
   <path d="m0 0 7.279-6.177c1.194-1.019 2.213-1.715 3.057-2.088 0.854-0.364 1.699-0.572 2.533-0.621v-0.46h-9.39v0.46c0.563 0 0.968 0.08 1.216 0.242 0.247 0.162 0.371 0.342 0.371 0.54 0 0.1-4e-3 0.189-0.014 0.268s-0.046 0.163-0.11 0.254c-0.063 0.092-0.165 0.207-0.305 0.349-0.141 0.14-0.347 0.323-0.619 0.546l-6.813 5.755v-5.431c0-0.398 0.01-0.721 0.028-0.97 0.02-0.249 0.057-0.452 0.11-0.609s0.134-0.284 0.24-0.379 0.248-0.184 0.422-0.267c0.418-0.199 0.859-0.298 1.325-0.298h0.67v-0.46h-8.415v0.46h0.699c0.825 0 1.417 0.202 1.776 0.609 0.233 0.256 0.349 0.894 0.349 1.914v10.887c0 0.381-7e-3 0.696-0.021 0.944-0.015 0.249-0.051 0.454-0.11 0.615-0.058 0.162-0.138 0.292-0.24 0.392-0.101 0.099-0.24 0.191-0.415 0.274-0.427 0.198-0.873 0.298-1.339 0.298h-0.699v0.459h8.415v-0.459h-0.67c-0.184 0-0.376-0.017-0.575-0.05-0.198-0.033-0.388-0.085-0.567-0.155-0.18-0.071-0.342-0.162-0.489-0.274-0.145-0.111-0.252-0.246-0.32-0.404-0.116-0.265-0.174-0.812-0.174-1.64v-5.158c0.378 0.265 0.81 0.588 1.295 0.969s0.983 0.783 1.492 1.206c0.51 0.422 1.015 0.845 1.515 1.268 0.5 0.422 0.953 0.814 1.361 1.174 0.407 0.36 0.749 0.673 1.027 0.938 0.276 0.266 0.453 0.444 0.531 0.535 0.261 0.331 0.392 0.621 0.392 0.87 0 0.191-0.099 0.358-0.297 0.503-0.2 0.145-0.546 0.218-1.042 0.218h-0.451v0.459h7.25v-0.459c-0.427-0.017-0.815-0.067-1.165-0.15-0.175-0.049-0.369-0.115-0.582-0.198-0.214-0.083-0.449-0.195-0.706-0.336-0.258-0.141-0.539-0.313-0.845-0.516-0.305-0.202-0.642-0.449-1.011-0.739z" fill="#303263"/>
  </g>
  <g transform="matrix(.35278 0 0 -.35278 122.55 75.261)">
   <path d="m0 0v-6.662h4.339c0.631 0 1.142 0.048 1.536 0.143 0.393 0.096 0.701 0.245 0.924 0.448s0.379 0.457 0.466 0.764c0.088 0.307 0.146 0.671 0.174 1.094h0.54v-5.867h-0.54c-0.067 0.415-0.135 0.752-0.203 1.014-0.068 0.26-0.135 0.449-0.204 0.565-0.088 0.149-0.199 0.279-0.335 0.392-0.135 0.111-0.31 0.209-0.524 0.292-0.213 0.082-0.471 0.145-0.772 0.186-0.3 0.041-0.655 0.062-1.062 0.062h-4.339v-5.556c0-0.737 0.039-1.192 0.117-1.367 0.038-0.074 0.087-0.145 0.146-0.211 0.057-0.066 0.142-0.122 0.255-0.168 0.111-0.045 0.256-0.08 0.436-0.105s0.405-0.038 0.677-0.038h3.348c0.573 0 1.051 0.015 1.434 0.044 0.384 0.029 0.719 0.079 1.005 0.149 0.286 0.071 0.539 0.17 0.757 0.299 0.219 0.128 0.449 0.292 0.691 0.49 0.301 0.249 0.607 0.568 0.918 0.957 0.311 0.39 0.621 0.846 0.932 1.367h0.582l-1.703-4.225h-15.214v0.46h0.699c0.184 0 0.378 0.016 0.582 0.049s0.396 0.088 0.575 0.162c0.18 0.074 0.342 0.168 0.488 0.28 0.145 0.111 0.248 0.242 0.305 0.391 0.117 0.257 0.175 0.799 0.175 1.628v10.949c0 1.061-0.126 1.72-0.378 1.976-0.349 0.332-0.932 0.498-1.747 0.498h-0.699v0.459h15.214v-3.69h-0.35c-0.106 0.447-0.214 0.815-0.32 1.105-0.107 0.291-0.229 0.531-0.364 0.721-0.136 0.191-0.291 0.342-0.466 0.454s-0.383 0.213-0.626 0.304c-0.398 0.125-1.082 0.187-2.053 0.187z" fill="#303263"/>
  </g>
  <g transform="matrix(.35278 0 0 -.35278 128.94 77.826)">
   <path d="m0 0c0.185 0 0.345-2e-3 0.48-6e-3 0.136-5e-3 0.248-7e-3 0.335-7e-3 0.942 0 1.769 0.094 2.482 0.28 0.714 0.187 1.308 0.445 1.784 0.777 0.476 0.331 0.832 0.723 1.069 1.174 0.239 0.452 0.358 0.943 0.358 1.473 0 0.522-0.103 1-0.307 1.435-0.203 0.436-0.492 0.811-0.866 1.125-0.373 0.315-0.819 0.56-1.339 0.733-0.519 0.175-1.09 0.262-1.711 0.262-0.281 0-0.611-0.019-0.989-0.057-0.379-0.037-0.811-0.097-1.296-0.18zm14.02-8.663h-5.271l-6.682 7.88c-0.253-9e-3 -0.478-0.015-0.677-0.019s-0.376-6e-3 -0.532-6e-3c-0.126 0-0.261 2e-3 -0.407 6e-3 -0.145 4e-3 -0.296 0.01-0.451 0.019v-4.897c0-1.06 0.136-1.719 0.407-1.976 0.369-0.365 0.922-0.547 1.66-0.547h0.772v-0.46h-8.459v0.46h0.743c0.824 0 1.422 0.232 1.79 0.696 0.204 0.257 0.306 0.866 0.306 1.827v10.888c0 1.06-0.136 1.719-0.407 1.976-0.379 0.364-0.942 0.546-1.689 0.546h-0.743v0.46h7.192c2.077 0 3.62-0.132 4.629-0.398 0.495-0.124 0.959-0.311 1.391-0.559 0.431-0.249 0.81-0.543 1.136-0.882 0.325-0.34 0.582-0.721 0.771-1.143 0.189-0.423 0.284-0.875 0.284-1.355 0-0.522-0.097-1.009-0.291-1.461-0.194-0.451-0.493-0.864-0.895-1.236-0.404-0.373-0.91-0.697-1.522-0.97-0.611-0.273-1.33-0.489-2.154-0.646l4.076-4.834c0.941-1.119 1.742-1.856 2.402-2.213 0.679-0.365 1.553-0.597 2.621-0.696z" fill="#303263"/>
  </g>
 </g>
</svg>
